<svg xmlns="http://www.w3.org/2000/svg" viewBox="0 0 64 64" role="img" aria-labelledby="title">
  <title id="title">Streamer</title>
  <defs>
    <linearGradient id="streamer-blue" x1="12" y1="6" x2="52" y2="60" gradientUnits="userSpaceOnUse">
      <stop stop-color="#28a8ff"/>
      <stop offset="1" stop-color="#1760ea"/>
    </linearGradient>
  </defs>
  <rect x="4" y="4" width="56" height="56" rx="16" fill="url(#streamer-blue)"/>
  <path fill="#fff" d="M20 23.5c0-2.5 2-4.5 4.5-4.5h14c2.5 0 4.5 2 4.5 4.5v17c0 2.5-2 4.5-4.5 4.5h-14a4.5 4.5 0 0 1-4.5-4.5v-17Zm24.5 5.2 8.4-6.2c1.3-1 3.1 0 3.1 1.6v15.8c0 1.6-1.8 2.6-3.1 1.6l-8.4-6.2v-6.6Z"/>
</svg>
